<svg xmlns="http://www.w3.org/2000/svg">
  <defs>
    <symbol id="whatsapp" viewBox="0 0 90 90">
      <title>WhatsApp</title>
      <path d="M90,43.841c0,24.213-19.779,43.841-44.182,43.841c-7.747,0-15.025-1.98-21.357-5.455L0,90l7.975-23.522 c-4.023-6.606-6.34-14.354-6.34-22.637C1.635,19.628,21.416,0,45.818,0C70.223,0,90,19.628,90,43.841z M45.818,6.982 c-20.484,0-37.146,16.535-37.146,36.859c0,8.065,2.629,15.534,7.076,21.61L11.107,79.14l14.275-4.537 c5.865,3.851,12.891,6.097,20.437,6.097c20.481,0,37.146-16.533,37.146-36.857S66.301,6.982,45.818,6.982z M68.129,53.938 c-0.273-0.447-0.994-0.717-2.076-1.254c-1.084-0.537-6.41-3.138-7.4-3.495c-0.993-0.358-1.717-0.538-2.438,0.537 c-0.721,1.076-2.797,3.495-3.43,4.212c-0.632,0.719-1.263,0.809-2.347,0.271c-1.082-0.537-4.571-1.673-8.708-5.333 c-3.219-2.848-5.393-6.364-6.025-7.441c-0.631-1.075-0.066-1.656,0.475-2.191c0.488-0.482,1.084-1.255,1.625-1.882 c0.543-0.628,0.723-1.075,1.082-1.793c0.363-0.717,0.182-1.344-0.09-1.883c-0.27-0.537-2.438-5.825-3.34-7.977 c-0.902-2.15-1.803-1.792-2.436-1.792c-0.631,0-1.354-0.09-2.076-0.09c-0.722,0-1.896,0.269-2.889,1.344 c-0.992,1.076-3.789,3.676-3.789,8.963c0,5.288,3.879,10.397,4.422,11.113c0.541,0.716,7.49,11.92,18.5,16.223 C58.2,65.771,58.2,64.336,60.186,64.156c1.984-0.179,6.406-2.599,7.312-5.107C68.398,  56.537,68.398,54.386,68.129,53.938z"/>
    </symbol>

    <symbol id="fone-call" viewBox="0 0 512.076 512.076">
      <title>Fone Call</title>
      <path d="M499.639,396.039l-103.646-69.12c-13.153-8.701-30.784-5.838-40.508,6.579l-30.191,38.818 c-3.88,5.116-10.933,6.6-16.546,3.482l-5.743-3.166c-19.038-10.377-42.726-23.296-90.453-71.04s-60.672-71.45-71.049-90.453 l-3.149-5.743c-3.161-5.612-1.705-12.695,3.413-16.606l38.792-30.182c12.412-9.725,15.279-27.351,6.588-40.508l-69.12-103.646 C109.12,1.056,91.25-2.966,77.461,5.323L34.12,31.358C20.502,39.364,10.511,52.33,6.242,67.539 c-15.607,56.866-3.866,155.008,140.706,299.597c115.004,114.995,200.619,145.92,259.465,145.92 c13.543,0.058,27.033-1.704,40.107-5.239c15.212-4.264,28.18-14.256,36.181-27.878l26.061-43.315 C517.063,422.832,513.043,404.951,499.639,396.039z M494.058,427.868l-26.001,43.341c-5.745,9.832-15.072,17.061-26.027,20.173 c-52.497,14.413-144.213,2.475-283.008-136.32S8.29,124.559,22.703,72.054c3.116-10.968,10.354-20.307,20.198-26.061 l43.341-26.001c5.983-3.6,13.739-1.855,17.604,3.959l37.547,56.371l31.514,47.266c3.774,5.707,2.534,13.356-2.85,17.579 l-38.801,30.182c-11.808,9.029-15.18,25.366-7.91,38.332l3.081,5.598c10.906,20.002,24.465,44.885,73.967,94.379 c49.502,49.493,74.377,63.053,94.37,73.958l5.606,3.089c12.965,7.269,29.303,3.898,38.332-7.91l30.182-38.801 c4.224-5.381,11.87-6.62,17.579-2.85l103.637,69.12C495.918,414.126,497.663,421.886,494.058,427.868z"/>
      <path d="M291.161,86.39c80.081,0.089,144.977,64.986,145.067,145.067c0,4.713,3.82,8.533,8.533,8.533s8.533-3.82,8.533-8.533 c-0.099-89.503-72.63-162.035-162.133-162.133c-4.713,0-8.533,3.82-8.533,8.533S286.448,86.39,291.161,86.39z"/>
      <path d="M291.161,137.59c51.816,0.061,93.806,42.051,93.867,93.867c0,4.713,3.821,8.533,8.533,8.533 c4.713,0,8.533-3.82,8.533-8.533c-0.071-61.238-49.696-110.863-110.933-110.933c-4.713,0-8.533,3.82-8.533,8.533 S286.448,137.59,291.161,137.59z"/>
      <path d="M291.161,188.79c23.552,0.028,42.638,19.114,42.667,42.667c0,4.713,3.821,8.533,8.533,8.533s8.533-3.82,8.533-8.533 c-0.038-32.974-26.759-59.696-59.733-59.733c-4.713,0-8.533,3.82-8.533,8.533S286.448,188.79,291.161,188.79z"/>
    </symbol>

    <symbol id="mail" viewBox="0 0 31.012 31.012">
      <title>Mail</title>
      <g>
        <g>
          <path d="M25.109,21.51c-0.123,0-0.246-0.045-0.342-0.136l-5.754-5.398c-0.201-0.188-0.211-0.505-0.022-0.706 c0.189-0.203,0.504-0.212,0.707-0.022l5.754,5.398c0.201,0.188,0.211,0.505,0.022,0.706C25.375,21.457,25.243,21.51,25.109,21.51z"/>
          <path d="M5.902,21.51c-0.133,0-0.266-0.053-0.365-0.158c-0.189-0.201-0.179-0.518,0.022-0.706l5.756-5.398 c0.202-0.188,0.519-0.18,0.707,0.022c0.189,0.201,0.179,0.518-0.022,0.706l-5.756,5.398C6.148,21.465,6.025,21.51,5.902,21.51z"/>
        </g>
        <path d="M28.512,26.529H2.5c-1.378,0-2.5-1.121-2.5-2.5V6.982c0-1.379,1.122-2.5,2.5-2.5h26.012c1.378,0,2.5,1.121,2.5,2.5v17.047 C31.012,25.408,29.89,26.529,28.512,26.529z M2.5,5.482c-0.827,0-1.5,0.673-1.5,1.5v17.047c0,0.827,0.673,1.5,1.5,1.5h26.012 c0.827,0,1.5-0.673,1.5-1.5V6.982c0-0.827-0.673-1.5-1.5-1.5H2.5z"/>
        <path d="M15.506,18.018c-0.665,0-1.33-0.221-1.836-0.662L0.83,6.155C0.622,5.974,0.6,5.658,0.781,5.449 c0.183-0.208,0.498-0.227,0.706-0.048l12.84,11.2c0.639,0.557,1.719,0.557,2.357,0L29.508,5.419 c0.207-0.181,0.522-0.161,0.706,0.048c0.181,0.209,0.16,0.524-0.048,0.706L17.342,17.355 C16.835,17.797,16.171,18.018,15.506,18.018z"/>
      </g>
    </symbol>

    <symbol id="menu-toggle" viewBox="0 0 24 24">
      <title>Toggle Menu</title>
      <path d="M24,3c0-0.6-0.4-1-1-1H1C0.4,2,0,2.4,0,3v2c0,0.6,0.4,1,1,1h22c0.6,0,1-0.4,1-1V3z"/>
      <path d="M24,11c0-0.6-0.4-1-1-1H1c-0.6,0-1,0.4-1,1v2c0,0.6,0.4,1,1,1h22c0.6,0,1-0.4,1-1V11z"/>
      <path d="M24,19c0-0.6-0.4-1-1-1H1c-0.6,0-1,0.4-1,1v2c0,0.6,0.4,1,1,1h22c0.6,0,1-0.4,1-1V19z"/>
    </symbol>

    <symbol id="icone-facebook" viewBox="0 0 96.124 96.123" >
      <title>Icone Facebook</title>
      <g>
        <path d="M72.089,0.02L59.624,0C45.62,0,36.57,9.285,36.57,23.656v10.907H24.037c-1.083,0-1.96,0.878-1.96,1.961v15.803 c0,1.083,0.878,1.96,1.96,1.96h12.533v39.876c0,1.083,0.877,1.96,1.96,1.96h16.352c1.083,0,1.96-0.878,1.96-1.96V54.287h14.654 c1.083,0,1.96-0.877,1.96-1.96l0.006-15.803c0-0.52-0.207-1.018-0.574-1.386c-0.367-0.368-0.867-0.575-1.387-0.575H56.842v-9.246 c0-4.444,1.059-6.7,6.848-6.7l8.397-0.003c1.082,0,1.959-0.878,1.959-1.96V1.98C74.046,0.899,73.17,0.022,72.089,0.02z"/>
      </g>
    </symbol>

    <symbol id="icone-youtube" viewBox="0 0 30 36" >
      <title>Icone Youtube</title>
      <g id="youtube-logo" transform="translate(-7.5)">
        <path id="YouTube" d="M32.876,26.333H30.9l.009-1.148a.932.932,0,0,1,.93-.927h.126a.933.933,0,0,1,.933.927Zm-7.41-2.459a.844.844,0,0,0-.911.749V30.2a.931.931,0,0,0,1.825,0V24.623A.845.845,0,0,0,25.465,23.874ZM37.5,20.752V31.369A4.789,4.789,0,0,1,32.592,36H12.408A4.789,4.789,0,0,1,7.5,31.369V20.752a4.79,4.79,0,0,1,4.908-4.631H32.592A4.79,4.79,0,0,1,37.5,20.752ZM13.755,32.522l0-11.184h2.5V19.681l-6.67-.01V21.3l2.082.006V32.522ZM21.255,23H19.169v5.972a10.585,10.585,0,0,1,0,1.448c-.17.463-.932.955-1.229.05a11.886,11.886,0,0,1-.007-1.457L17.921,23H15.847l.006,5.919c0,.907-.02,1.584.007,1.892.051.543.033,1.176.536,1.537.938.676,2.737-.1,3.187-1.067l0,1.233,1.675,0V23Zm6.673,6.839,0-4.971c0-1.894-1.419-3.029-3.342-1.5l.008-3.7-2.084,0L22.5,32.44l1.714-.025.156-.794C26.555,33.629,27.931,32.252,27.928,29.843Zm6.528-.659-1.564.008c0,.062,0,.134,0,.212v.873a.854.854,0,0,1-.855.848h-.306a.854.854,0,0,1-.856-.848v-2.3h3.582V26.633a21.268,21.268,0,0,0-.107-2.533c-.256-1.782-2.757-2.064-4.02-1.152a2.355,2.355,0,0,0-.875,1.178,6.632,6.632,0,0,0-.266,2.1v2.964C29.186,34.118,35.17,33.422,34.456,29.184ZM26.433,13.093a1.42,1.42,0,0,0,.5.634,1.453,1.453,0,0,0,.854.237,1.328,1.328,0,0,0,.8-.249,1.917,1.917,0,0,0,.585-.748l-.04.818h2.325V3.9h-1.83v7.7a.762.762,0,0,1-1.524,0V3.9h-1.91v6.67c0,.85.016,1.416.041,1.7A2.867,2.867,0,0,0,26.433,13.093ZM19.387,7.508a8.229,8.229,0,0,1,.236-2.225,2.381,2.381,0,0,1,2.431-1.77,2.884,2.884,0,0,1,1.384.312,2.305,2.305,0,0,1,.892.811,3.2,3.2,0,0,1,.43,1.03,8.212,8.212,0,0,1,.116,1.619v2.5a13.538,13.538,0,0,1-.108,2.02,3.2,3.2,0,0,1-.458,1.2,2.173,2.173,0,0,1-.895.822,2.855,2.855,0,0,1-1.262.265,3.5,3.5,0,0,1-1.344-.226,1.845,1.845,0,0,1-.858-.686,3.044,3.044,0,0,1-.437-1.109,10.685,10.685,0,0,1-.129-1.95V7.508Zm1.821,3.928a.928.928,0,1,0,1.848,0V6.172a.928.928,0,1,0-1.848,0Zm-6.435,2.658h2.194l0-7.584,2.592-6.5h-2.4L15.784,4.839,14.386,0H12.012l2.758,6.514Z" fill="#d96c33"/>
      </g>
    </symbol>

    <symbol id="icone-instagram" viewBox="0 0 34 34" >
      <title>Icone Instagram</title>
      <g id="Agrupar_153" data-name="Agrupar 153">
        <g id="Agrupar_152" data-name="Agrupar 152">
          <path id="Caminho_55" data-name="Caminho 55" d="M23.375,0H10.625A10.626,10.626,0,0,0,0,10.625v12.75A10.626,10.626,0,0,0,10.625,34h12.75A10.626,10.626,0,0,0,34,23.375V10.625A10.626,10.626,0,0,0,23.375,0Zm7.438,23.375a7.446,7.446,0,0,1-7.437,7.438H10.625a7.446,7.446,0,0,1-7.437-7.437V10.625a7.446,7.446,0,0,1,7.438-7.437h12.75a7.446,7.446,0,0,1,7.438,7.438Z" fill="#d96c33"/>
        </g>
      </g>
      <g id="Agrupar_155" data-name="Agrupar 155" transform="translate(8.5 8.5)">
        <g id="Agrupar_154" data-name="Agrupar 154">
          <path id="Caminho_56" data-name="Caminho 56" d="M136.5,128a8.5,8.5,0,1,0,8.5,8.5A8.5,8.5,0,0,0,136.5,128Zm0,13.813a5.313,5.313,0,1,1,5.313-5.312A5.32,5.32,0,0,1,136.5,141.813Z" transform="translate(-128 -128)" fill="#d96c33"/>
        </g>
      </g>
      <g id="Agrupar_157" data-name="Agrupar 157" transform="translate(25.005 6.73)">
        <g id="Agrupar_156" data-name="Agrupar 156">
          <circle id="Elipse_53" data-name="Elipse 53" cx="1.133" cy="1.133" r="1.133" fill="#d96c33"/>
        </g>
      </g>
    </symbol>

    <symbol id="placeholder" viewBox="0 0 14.891 21.178" >
      <title>Placeholder</title>
      <g transform="translate(-76)">
        <g id="Agrupar_92" data-name="Agrupar 92" transform="translate(76)">
          <g id="Agrupar_91" data-name="Agrupar 91">
            <path id="Caminho_95" data-name="Caminho 95" d="M83.445,0a7.447,7.447,0,0,0-6.334,11.36l5.91,9.524a.62.62,0,0,0,.527.293h0a.62.62,0,0,0,.527-.3L89.84,11.26A7.447,7.447,0,0,0,83.445,0Zm5.33,10.623-5.236,8.743-5.373-8.659a6.209,6.209,0,1,1,10.61-.084Z" transform="translate(-76 0)" />
          </g>
        </g>
        <g id="Agrupar_94" data-name="Agrupar 94" transform="translate(79.723 3.723)">
          <g id="Agrupar_93" data-name="Agrupar 93">
            <path id="Caminho_96" data-name="Caminho 96" d="M169.723,90a3.723,3.723,0,1,0,3.723,3.723A3.727,3.727,0,0,0,169.723,90Zm0,6.213a2.49,2.49,0,1,1,2.486-2.49A2.492,2.492,0,0,1,169.723,96.213Z" transform="translate(-166 -90)"/>
          </g>
        </g>
      </g>
    </symbol>

     <symbol id="cartola-preta" width="20.912" height="19.062" viewBox="0 0 20.912 19.062" >
      <title>Cartola Preta</title>
        <g id="cartola-preta" transform="translate(-0.024 0.007)">
          <path id="Caminho_75" data-name="Caminho 75" d="M213.643,46.041a53.033,53.033,0,0,1-.684-8.315c-2.138-2.56-15.4.285-14.257,2.9a39.339,39.339,0,0,1,2.424,8.571c-2.065,1.494-5.23,4.613-2.451,6.311,1.232.76,3.665-.034,9.341-2.369,3.5-.77,7.471-1.351,9.279-2.547,2.252-1.489,1.5-3.616-3.65-4.551Z" transform="translate(-197.56 -36.73)" fill="none"/>
          <path id="Caminho_76" data-name="Caminho 76" d="M213.643,46.041a53.033,53.033,0,0,1-.684-8.315c-2.138-2.56-15.4.285-14.257,2.9a39.339,39.339,0,0,1,2.424,8.571c-2.065,1.494-5.23,4.613-2.451,6.311,1.232.76,3.665-.034,9.341-2.369,3.5-.77,7.471-1.351,9.279-2.547,2.252-1.489,1.5-3.616-3.65-4.551Z" transform="translate(-197.56 -36.73)" fill="#fdfdfd" fill-rule="evenodd"/>
          <path id="Caminho_77" data-name="Caminho 77" d="M230.88,122.72c.16.017.313.034.473.057a30.741,30.741,0,0,1,2.1,8.68h-.32A31.831,31.831,0,0,0,230.88,122.72Z" transform="translate(-229.368 -118.883)" fill="none"/>
          <path id="Caminho_78" data-name="Caminho 78" d="M230.88,122.72c.16.017.313.034.473.057a30.741,30.741,0,0,1,2.1,8.68h-.32A31.831,31.831,0,0,0,230.88,122.72Z" transform="translate(-229.368 -118.883)" fill="#fdfdfd" fill-rule="evenodd"/>
          <path id="Caminho_79" data-name="Caminho 79" d="M211.807,378.159c-.581,5.008,5.558.342,9.4-1.159-2.595.394-6.535,3.182-7.248,2.92.165-.268.547-.3.816-.45a1.5,1.5,0,0,1-2.1-1.129c.017.3.034.593.051.894a1.643,1.643,0,0,1-.525-.736,5.871,5.871,0,0,0,.211,1.129c-.411-.217-.547-.958-.6-1.471Z" transform="translate(-211.111 -361.799)" fill="none"/>
          <path id="Caminho_80" data-name="Caminho 80" d="M211.807,378.159c-.581,5.008,5.558.342,9.4-1.159-2.595.394-6.535,3.182-7.248,2.92.165-.268.547-.3.816-.45a1.5,1.5,0,0,1-2.1-1.129c.017.3.034.593.051.894a1.643,1.643,0,0,1-.525-.736,5.871,5.871,0,0,0,.211,1.129c-.411-.217-.547-.958-.6-1.471Z" transform="translate(-211.111 -361.799)" fill="#fdfdfd" fill-rule="evenodd"/>
          <path id="Caminho_81" data-name="Caminho 81" d="M591.926,298.3c.61,1.591-1.181,2.327-2.606,2.5C590.734,300.624,592.1,298.978,591.926,298.3Z" transform="translate(-571.789 -286.616)" fill="none"/>
          <path id="Caminho_82" data-name="Caminho 82" d="M591.926,298.3c.61,1.591-1.181,2.327-2.606,2.5C590.734,300.624,592.1,298.978,591.926,298.3Z" transform="translate(-571.789 -286.616)" fill="#fdfdfd" fill-rule="evenodd"/>
          <path id="Caminho_83" data-name="Caminho 83" d="M259.21,101.846a71.08,71.08,0,0,0,9.1-1.066A21.913,21.913,0,0,1,259.21,101.846Z" transform="translate(-256.432 -97.924)" fill="none"/>
          <path id="Caminho_84" data-name="Caminho 84" d="M259.21,101.846a71.08,71.08,0,0,0,9.1-1.066A21.913,21.913,0,0,1,259.21,101.846Z" transform="translate(-256.432 -97.924)" fill="#fdfdfd" fill-rule="evenodd"/>
          <path id="Caminho_85" data-name="Caminho 85" d="M423.56,256.255a22.622,22.622,0,0,0,5.5-2.1A11.121,11.121,0,0,1,423.56,256.255Z" transform="translate(-413.437 -244.439)" fill="none"/>
          <path id="Caminho_86" data-name="Caminho 86" d="M423.56,256.255a22.622,22.622,0,0,0,5.5-2.1A11.121,11.121,0,0,1,423.56,256.255Z" transform="translate(-413.437 -244.439)" fill="#fdfdfd" fill-rule="evenodd"/>
          <path id="Caminho_87" data-name="Caminho 87" d="M213.643,46.041a53.033,53.033,0,0,1-.684-8.315c-2.138-2.56-15.4.285-14.257,2.9a39.339,39.339,0,0,1,2.424,8.571c-2.065,1.494-5.23,4.613-2.451,6.311,1.232.76,3.665-.034,9.341-2.369,3.5-.77,7.471-1.351,9.279-2.547,2.252-1.489,1.5-3.616-3.65-4.551Z" transform="translate(-197.56 -36.73)" fill-rule="evenodd"/>
          <path id="Caminho_88" data-name="Caminho 88" d="M230.88,122.72c.16.017.313.034.473.057a30.741,30.741,0,0,1,2.1,8.68h-.32A31.831,31.831,0,0,0,230.88,122.72Z" transform="translate(-229.368 -118.883)" fill="#fdfdfd" fill-rule="evenodd"/>
          <path id="Caminho_89" data-name="Caminho 89" d="M211.807,378.159c-.581,5.008,5.558.342,9.4-1.159-2.595.394-6.535,3.182-7.248,2.92.165-.268.547-.3.816-.45a1.5,1.5,0,0,1-2.1-1.129c.017.3.034.593.051.894a1.643,1.643,0,0,1-.525-.736,5.871,5.871,0,0,0,.211,1.129c-.411-.217-.547-.958-.6-1.471Z" transform="translate(-211.111 -361.799)" fill="#fff" fill-rule="evenodd"/>
          <path id="Caminho_90" data-name="Caminho 90" d="M591.926,298.3c.61,1.591-1.181,2.327-2.606,2.5C590.734,300.624,592.1,298.978,591.926,298.3Z" transform="translate(-571.789 -286.616)" fill="#fff" fill-rule="evenodd"/>
          <path id="Caminho_91" data-name="Caminho 91" d="M259.21,101.846a71.08,71.08,0,0,0,9.1-1.066A21.913,21.913,0,0,1,259.21,101.846Z" transform="translate(-256.432 -97.924)" fill="#fff" fill-rule="evenodd"/>
          <path id="Caminho_92" data-name="Caminho 92" d="M423.56,256.255a22.622,22.622,0,0,0,5.5-2.1A11.121,11.121,0,0,1,423.56,256.255Z" transform="translate(-413.437 -244.439)" fill="#fff" fill-rule="evenodd"/>
        </g>
      </symbol>

      <symbol id="chat" viewBox="0 0 45.98 45.984" >
        <title>Chat</title>
        <g id="Agrupar_28" data-name="Agrupar 28" transform="translate(0)">
          <path id="Caminho_24" data-name="Caminho 24" d="M39.252,6.737A22.986,22.986,0,0,0,5.294,37.652a8.8,8.8,0,0,1-3.685,4.083A2.157,2.157,0,0,0,2.232,45.8a11.881,11.881,0,0,0,1.818.136,13.725,13.725,0,0,0,8.088-2.683A22.984,22.984,0,0,0,39.252,6.737ZM37.4,37.39a20.362,20.362,0,0,1-24.713,3.169,1.307,1.307,0,0,0-1.594.2.432.432,0,0,0-.107.078A11.224,11.224,0,0,1,4.05,43.31H4.04a12.872,12.872,0,0,0,3.947-5.24,1.343,1.343,0,0,0,.068-.846,1.365,1.365,0,0,0-.321-.739,20.364,20.364,0,1,1,29.661.9Z" transform="translate(-0.019)"/>
          <circle id="Elipse_46" data-name="Elipse 46" cx="1.614" cy="1.614" r="1.614" transform="translate(21.365 21.378)"/>
          <circle id="Elipse_47" data-name="Elipse 47" cx="1.614" cy="1.614" r="1.614" transform="translate(29.686 21.378)"/>
          <circle id="Elipse_48" data-name="Elipse 48" cx="1.614" cy="1.614" r="1.614" transform="translate(13.043 21.378)"/>
        </g>
      </symbol>

      <symbol id="chat1" viewBox="0 0 511.999 511.999" >
        <title>Chat 1</title>
        <g>
          <g>
            <path d="M372.29,50.758H28.831C12.933,50.758,0,63.691,0,79.588v206.056c0,15.897,12.933,28.831,28.831,28.831h22.271v76.71
              c0,4.884,2.942,9.289,7.456,11.159c1.494,0.62,3.064,0.92,4.62,0.92c3.144,0,6.232-1.228,8.543-3.538l85.251-85.25h17.104
              c6.671,0,12.078-5.407,12.078-12.078c0-6.672-5.409-12.079-12.078-12.079c0,0-22.69,0.016-22.927,0.04
              c-2.812,0.191-5.572,1.349-7.722,3.498l-68.169,68.169c0,0-0.021-60.392-0.06-60.705c-0.545-6.166-5.717-11.002-12.024-11.002
              H28.831c-2.578,0-4.674-2.097-4.674-4.674V79.588c0-2.578,2.097-4.674,4.674-4.674H372.29c2.578,0,4.674,2.097,4.674,4.674v79.055
              c0,6.671,5.409,12.078,12.078,12.078s12.078-5.407,12.078-12.078V79.588C401.12,63.691,388.187,50.758,372.29,50.758z"/>
          </g>
        </g>
        <g>
          <g>
            <path d="M483.169,198.492H242.754c-15.897,0-28.831,12.933-28.831,28.831v140.57c0,15.897,12.933,28.831,28.831,28.831h150.514
              l60.98,60.98c2.311,2.311,5.4,3.538,8.543,3.538c1.556,0,3.126-0.301,4.62-0.92c4.512-1.87,7.456-6.273,7.456-11.159v-52.44h8.301
              c15.897,0,28.831-12.933,28.831-28.831V227.322C512,211.425,499.067,198.492,483.169,198.492z M487.844,367.893
              c0,2.577-2.097,4.674-4.674,4.674h-20.376c-6.356,0-11.554,4.912-12.031,11.147c-0.031,0.264-0.051,36.29-0.051,36.29
              l-43.854-43.855c-0.046-0.046-0.094-0.089-0.14-0.135c-0.172-0.168-0.335-0.314-0.489-0.445c-2.126-1.864-4.903-3.003-7.951-3.003
              H242.754c-2.578,0-4.674-2.097-4.674-4.674v-140.57c0-2.578,2.097-4.674,4.674-4.674h240.416c2.577,0,4.674,2.097,4.674,4.674
              V367.893z"/>
          </g>
        </g>
        <g>
          <g>
            <path d="M362.964,285.53c-6.667,0-12.078,5.411-12.078,12.078c0,6.667,5.411,12.078,12.078,12.078
              c6.668,0,12.078-5.411,12.078-12.078C375.042,290.941,369.631,285.53,362.964,285.53z"/>
          </g>
        </g>
        <g>
          <g>
            <path d="M310.472,130.611c0,0-219.822,0-219.822,0c-6.67,0-12.078,5.407-12.078,12.078s5.409,12.078,12.078,12.078h219.822
              c6.67,0,12.078-5.407,12.078-12.078S317.142,130.611,310.472,130.611z"/>
          </g>
        </g>
        <g>
          <g>
            <path d="M174.075,210.465H90.65c-6.67,0-12.078,5.407-12.078,12.078c0,6.671,5.409,12.078,12.078,12.078h83.425
              c6.671,0,12.078-5.407,12.078-12.078S180.745,210.465,174.075,210.465z"/>
          </g>
        </g>
        <g>
          <g>
            <path d="M306.837,285.53c-6.666,0-12.078,5.411-12.078,12.078c0,6.667,5.412,12.078,12.078,12.078
              c6.668,0,12.078-5.411,12.078-12.078C318.915,290.941,313.505,285.53,306.837,285.53z"/>
          </g>
        </g>
        <g>
          <g>
            <path d="M419.079,285.53c-6.667,0-12.078,5.411-12.078,12.078c0,6.667,5.411,12.078,12.078,12.078
              c6.668,0,12.078-5.411,12.078-12.078C431.157,290.941,425.746,285.53,419.079,285.53z"/>
          </g>
        </g>
      </symbol>

      <symbol id="home" viewBox="0 0 29.53 23.5" >
        <title>Home</title>
        <g id="home" transform="translate(0.001 -46.994)">
          <g id="Grupo_30" data-name="Grupo 30" transform="translate(-0.001 46.994)">
            <path id="Caminho_29" data-name="Caminho 29" d="M76.248,120.939l-10.532,8.682a.249.249,0,0,1-.009.055.251.251,0,0,0-.009.055v8.792a1.189,1.189,0,0,0,1.172,1.173H73.9v-7.033h4.689V139.7h7.033a1.191,1.191,0,0,0,1.173-1.173v-8.792a.258.258,0,0,0-.018-.11Z" transform="translate(-61.483 -116.195)"/>
            <path id="Caminho_30" data-name="Caminho 30" d="M29.325,58.442l-4.011-3.334V47.635a.565.565,0,0,0-.586-.586H21.212a.564.564,0,0,0-.586.586v3.572L16.156,47.47a2.272,2.272,0,0,0-2.784,0L.2,58.442a.532.532,0,0,0-.2.394.593.593,0,0,0,.128.431l1.136,1.355a.625.625,0,0,0,.385.2.681.681,0,0,0,.44-.128L14.764,50.126,27.439,60.695a.564.564,0,0,0,.385.128h.055a.625.625,0,0,0,.385-.2L29.4,59.266a.593.593,0,0,0,.128-.431A.534.534,0,0,0,29.325,58.442Z" transform="translate(0.001 -46.994)"/>
          </g>
        </g>
      </symbol>

      <symbol id="calendar" viewBox="0 0 18 18" >
        <title>Calendar</title>
        <g id="Grupo_237" data-name="Grupo 237">
          <g id="Grupo_236" data-name="Grupo 236">
            <path id="Caminho_142" data-name="Caminho 142" d="M15.891,1.406h-.844V0H13.641V1.406H4.359V0H2.953V1.406H2.109A2.112,2.112,0,0,0,0,3.516V15.891A2.112,2.112,0,0,0,2.109,18H15.891A2.112,2.112,0,0,0,18,15.891V3.516A2.112,2.112,0,0,0,15.891,1.406Zm.7,14.484a.7.7,0,0,1-.7.7H2.109a.7.7,0,0,1-.7-.7V6.609H16.594Zm0-10.687H1.406V3.516a.7.7,0,0,1,.7-.7h.844V4.219H4.359V2.813h9.281V4.219h1.406V2.813h.844a.7.7,0,0,1,.7.7Z" fill="#959595"/>
          </g>
        </g>
        <g id="Grupo_239" data-name="Grupo 239" transform="translate(2.672 8.086)">
          <g id="Grupo_238" data-name="Grupo 238">
            <rect id="Retângulo_161" data-name="Retângulo 161" width="1.406" height="1.406" fill="#959595"/>
          </g>
        </g>
        <g id="Grupo_241" data-name="Grupo 241" transform="translate(5.484 8.086)">
          <g id="Grupo_240" data-name="Grupo 240">
            <rect id="Retângulo_162" data-name="Retângulo 162" width="1.406" height="1.406" fill="#959595"/>
          </g>
        </g>
        <g id="Grupo_243" data-name="Grupo 243" transform="translate(8.297 8.086)">
          <g id="Grupo_242" data-name="Grupo 242">
            <rect id="Retângulo_163" data-name="Retângulo 163" width="1.406" height="1.406" fill="#959595"/>
          </g>
        </g>
        <g id="Grupo_245" data-name="Grupo 245" transform="translate(11.109 8.086)">
          <g id="Grupo_244" data-name="Grupo 244">
            <rect id="Retângulo_164" data-name="Retângulo 164" width="1.406" height="1.406" fill="#959595"/>
          </g>
        </g>
        <g id="Grupo_247" data-name="Grupo 247" transform="translate(13.922 8.086)">
          <g id="Grupo_246" data-name="Grupo 246">
            <rect id="Retângulo_165" data-name="Retângulo 165" width="1.406" height="1.406" fill="#959595"/>
          </g>
        </g>
        <g id="Grupo_249" data-name="Grupo 249" transform="translate(2.672 10.898)">
          <g id="Grupo_248" data-name="Grupo 248">
            <rect id="Retângulo_166" data-name="Retângulo 166" width="1.406" height="1.406" fill="#959595"/>
          </g>
        </g>
        <g id="Grupo_251" data-name="Grupo 251" transform="translate(5.484 10.898)">
          <g id="Grupo_250" data-name="Grupo 250">
            <rect id="Retângulo_167" data-name="Retângulo 167" width="1.406" height="1.406" fill="#959595"/>
          </g>
        </g>
        <g id="Grupo_253" data-name="Grupo 253" transform="translate(8.297 10.898)">
          <g id="Grupo_252" data-name="Grupo 252">
            <rect id="Retângulo_168" data-name="Retângulo 168" width="1.406" height="1.406" fill="#959595"/>
          </g>
        </g>
        <g id="Grupo_255" data-name="Grupo 255" transform="translate(11.109 10.898)">
          <g id="Grupo_254" data-name="Grupo 254">
            <rect id="Retângulo_169" data-name="Retângulo 169" width="1.406" height="1.406" fill="#959595"/>
          </g>
        </g>
        <g id="Grupo_257" data-name="Grupo 257" transform="translate(2.672 13.711)">
          <g id="Grupo_256" data-name="Grupo 256">
            <rect id="Retângulo_170" data-name="Retângulo 170" width="1.406" height="1.406" fill="#959595"/>
          </g>
        </g>
        <g id="Grupo_259" data-name="Grupo 259" transform="translate(5.484 13.711)">
          <g id="Grupo_258" data-name="Grupo 258">
            <rect id="Retângulo_171" data-name="Retângulo 171" width="1.406" height="1.406" fill="#959595"/>
          </g>
        </g>
        <g id="Grupo_261" data-name="Grupo 261" transform="translate(8.297 13.711)">
          <g id="Grupo_260" data-name="Grupo 260">
            <rect id="Retângulo_172" data-name="Retângulo 172" width="1.406" height="1.406" fill="#959595"/>
          </g>
        </g>
        <g id="Grupo_263" data-name="Grupo 263" transform="translate(11.109 13.711)">
          <g id="Grupo_262" data-name="Grupo 262">
            <rect id="Retângulo_173" data-name="Retângulo 173" width="1.406" height="1.406" fill="#959595"/>
          </g>
        </g>
        <g id="Grupo_265" data-name="Grupo 265" transform="translate(13.922 10.898)">
          <g id="Grupo_264" data-name="Grupo 264">
            <rect id="Retângulo_174" data-name="Retângulo 174" width="1.406" height="1.406" fill="#959595"/>
          </g>
        </g>
      </symbol>

      <symbol id="arrow-to-right" viewBox="0 0 29.296 24.333" >
        <title>Arrow to right</title>
        <g id="arrow-to-right" transform="translate(29.296 66.007) rotate(180)">
          <g id="Grupo_1" data-name="Grupo 1" transform="translate(0 41.674)">
            <path id="Caminho_7" data-name="Caminho 7" d="M27.649,51.543l.046.01H8.091l6.163-6.176a1.618,1.618,0,0,0,0-2.275l-.959-.959a1.6,1.6,0,0,0-2.264,0L.467,52.7a1.615,1.615,0,0,0,0,2.272L11.031,65.54a1.605,1.605,0,0,0,2.264,0l.959-.959a1.587,1.587,0,0,0,.467-1.132,1.539,1.539,0,0,0-.467-1.111L8.022,56.128h19.65A1.66,1.66,0,0,0,29.3,54.484V53.127A1.628,1.628,0,0,0,27.649,51.543Z" transform="translate(0 -41.674)"/>
          </g>
        </g>
      </symbol>

      <symbol id="arrow-blog-home" viewBox="0 0 9.526 16.71" >
        <title>Arrow Blog Home</title>
        <path id="arrow-blog-home" data-name="Caminho 42" d="M106.321,9.182l-7.185,7.185a1.17,1.17,0,0,1-1.655-1.655l6.358-6.358L97.481,2A1.17,1.17,0,0,1,99.136.343l7.185,7.185a1.17,1.17,0,0,1,0,1.655Z" transform="translate(-97.139 0)"/>
      </symbol>
  </defs>
</svg>